<svg t="1693403717549" class="icon" viewBox="0 0 1024 1024" version="1.1" xmlns="http://www.w3.org/2000/svg" p-id="2256" xmlns:xlink="http://www.w3.org/1999/xlink" width="200" height="200"><path d="M682.054 200l1.72 0.011c56.713 0.725 106.856 37.265 124.841 91.181l85.134 255.206C918.336 577.68 933 617.128 933 660c0 101.62-82.39 184-184.021 184-101.633 0-184.022-82.38-184.022-184 0-19.178 2.934-37.67 8.379-55.054l-138.448 0.72c5.3 17.173 8.155 35.42 8.155 54.334 0 101.62-82.39 184-184.022 184C157.39 844 75 761.62 75 660c0-38.758 11.985-74.717 32.45-104.374 0.209-1.083 0.476-2.166 0.807-3.243l0.222-0.692 86.844-260.343c17.985-53.916 68.128-90.455 124.84-91.18l1.721-0.012h78c16.515 0 29.904 13.387 29.904 29.9 0 16.278-13.009 29.517-29.198 29.892l-0.706 0.008h-78c-31.345 0-59.211 19.841-69.504 49.367l-0.323 0.946-59.396 178.058c20.587-7.961 42.964-12.327 66.36-12.327 58.585 0 110.775 27.373 144.477 70.025L601.606 545a30.217 30.217 0 0 1 3.564 0.192C638.887 503.016 690.778 476 748.979 476c21.675 0 42.474 3.747 61.786 10.628l-58.884-176.515-0.323-0.946c-10.293-29.526-38.16-49.367-69.504-49.367h-78l-0.706-0.008c-16.19-0.375-29.198-13.615-29.198-29.892 0-16.513 13.388-29.9 29.904-29.9h78zM259.02 535.8c-68.601 0-124.214 55.606-124.214 124.2s55.613 124.2 124.214 124.2c68.602 0 124.215-55.606 124.215-124.2S327.623 535.8 259.02 535.8z m489.958 0c-68.602 0-124.215 55.606-124.215 124.2s55.613 124.2 124.215 124.2c68.601 0 124.214-55.606 124.214-124.2S817.58 535.8 748.979 535.8z" fill="#f6f6f6" p-id="2257"></path></svg>